<svg xmlns="http://www.w3.org/2000/svg" version="1.1" xmlns:xlink="http://www.w3.org/1999/xlink" xmlns:svgjs="http://svgjs.dev/svgjs" width="1500" height="1500" viewBox="0 0 1500 1500"><rect width="1500" height="1500" fill="#ffffff"></rect><g transform="matrix(0.6666666666666666,0,0,0.6666666666666666,249.39393939393938,675.1741040913597)"><svg viewBox="0 0 396 59" data-background-color="#ffffff" preserveAspectRatio="xMidYMid meet" height="223" width="1500" xmlns="http://www.w3.org/2000/svg" xmlns:xlink="http://www.w3.org/1999/xlink"><g id="tight-bounds" transform="matrix(1,0,0,1,0.2400000000000091,0.19547886957252558)"><svg viewBox="0 0 395.52 58.60904226085495" height="58.60904226085495" width="395.52"><g><svg viewBox="0 0 522.8465617860758 77.47657826573327" height="58.60904226085495" width="395.52"><g><rect width="3.2569395698830967" height="67.27343988341528" x="115.54360239974483" y="5.101569191158994" fill="#bb84e8" opacity="1" stroke-width="0" stroke="transparent" fill-opacity="1" class="rect-qz-0" data-fill-palette-color="primary" rx="1%" id="qz-0" data-palette-color="#bb84e8"></rect></g><g transform="matrix(1,0,0,1,127.32656178607583,10.707689181443602)"><svg viewBox="0 0 395.52 56.06119990284606" height="56.06119990284606" width="395.52"><g id="textblocktransform"><svg viewBox="0 0 395.52 56.06119990284606" height="56.06119990284606" width="395.52" id="textblock"><g><svg viewBox="0 0 395.52 36.11557217357079" height="36.11557217357079" width="395.52"><g transform="matrix(1,0,0,1,0,0)"><svg width="395.52" viewBox="3 -35 508.1 46.4" height="36.11557217357079" data-palette-color="#bb84e8"><path d="M3-17.5L3-17.5Q3.05-25.85 7.63-30.43 12.2-35 20.25-35L20.25-35 23.5-35 23.5-30.6 19.65-30.6Q14.1-30.6 11.13-26.93 8.15-23.25 8.05-17.5L8.05-17.5Q8.15-11.75 11.13-8.08 14.1-4.4 19.65-4.4L19.65-4.4 23.5-4.4 23.5 0 20.25 0Q12.2 0 7.63-4.58 3.05-9.15 3-17.5ZM32.9 0L28.5 0 28.5-13.65Q28.5-19.4 30.65-21.6L30.65-21.6Q31.7-22.7 33.2-23.25 34.7-23.8 35.82-23.9 36.95-24 38.9-24L38.9-24 43.3-24 43.3-19.8 38-19.8Q37-19.8 36.45-19.75 35.9-19.7 35.15-19.4 34.4-19.1 33.85-18.45L33.85-18.45Q32.9-17.25 32.9-13.65L32.9-13.65 32.9 0ZM45.8-11.65L45.8-24 50.2-24 50.2-11.45Q50.2-7.4 51.45-5.8 52.7-4.2 56.05-4.2L56.05-4.2 61.3-4.2 61.3-24 65.7-24 65.7-1.2Q65.7 5.05 62.42 8.22 59.15 11.4 52.15 11.4L52.15 11.4 48.55 11.4 48.55 7.2 51.7 7.2Q60.84 7.2 61.3 0L61.3 0 57.09 0Q50.55 0 48.17-2.3 45.8-4.6 45.8-11.65L45.8-11.65ZM75.94 11.4L71.44 11.4 71.44-12Q71.44-14.6 72.39-16.9 73.34-19.2 74.99-20.88 76.64-22.55 78.89-23.53 81.14-24.5 83.69-24.5L83.69-24.5Q86.24-24.5 88.47-23.53 90.69-22.55 92.37-20.85 94.04-19.15 94.99-16.88 95.94-14.6 95.94-12L95.94-12Q95.94-9.4 95.02-7.13 94.09-4.85 92.44-3.15 90.79-1.45 88.54-0.48 86.29 0.5 83.69 0.5L83.69 0.5Q80.49 0.5 77.74-1L77.74-1 77.74-5.5Q80.19-3.7 83.54-3.7L83.54-3.7Q85.34-3.7 86.82-4.33 88.29-4.95 89.32-6.05 90.34-7.15 90.89-8.68 91.44-10.2 91.44-12L91.44-12Q91.44-13.8 90.89-15.33 90.34-16.85 89.34-17.95 88.34-19.05 86.92-19.68 85.49-20.3 83.69-20.3L83.69-20.3Q81.94-20.3 80.52-19.7 79.09-19.1 78.07-18 77.04-16.9 76.49-15.38 75.94-13.85 75.94-12L75.94-12 75.94 11.4ZM103.14-19.8L98.69-19.8 107.64-28.75 107.64-24 114.39-24 114.39-19.8 107.64-19.8 107.64-9.5Q107.64-7.75 108.22-6.6 108.79-5.45 109.89-4.98 110.99-4.5 111.97-4.35 112.94-4.2 114.39-4.2L114.39-4.2 114.39 0Q108.64 0 105.89-2.2 103.14-4.4 103.14-9.5L103.14-9.5 103.14-19.8ZM121.89-20.85L121.89-20.85Q125.39-24.5 130.64-24.5L130.64-24.5Q133.19-24.5 135.41-23.53 137.64-22.55 139.31-20.85 140.99-19.15 141.94-16.88 142.89-14.6 142.89-12L142.89-12Q142.89-9.4 141.96-7.13 141.04-4.85 139.39-3.15 137.74-1.45 135.49-0.48 133.24 0.5 130.64 0.5L130.64 0.5Q127.99 0.5 125.76-0.48 123.54-1.45 121.89-3.15 120.24-4.85 119.31-7.13 118.39-9.4 118.39-12L118.39-12Q118.39-17.3 121.89-20.85ZM130.64-20.3L130.64-20.3Q127.14-20.3 125.01-18 122.89-15.7 122.89-12 122.89-8.3 125.01-6 127.14-3.7 130.64-3.7L130.64-3.7Q134.19-3.7 136.29-6.03 138.39-8.35 138.39-12 138.39-15.65 136.29-17.98 134.19-20.3 130.64-20.3ZM166.68-30.6L158.03-30.6 158.03-35 180.03-35 180.03-30.6 171.38-30.6 171.38 0 166.68 0 166.68-30.6ZM187.03-20.85L187.03-20.85Q190.53-24.5 195.78-24.5L195.78-24.5Q198.33-24.5 200.56-23.53 202.78-22.55 204.46-20.85 206.13-19.15 207.08-16.88 208.03-14.6 208.03-12L208.03-12Q208.03-9.4 207.11-7.13 206.18-4.85 204.53-3.15 202.88-1.45 200.63-0.48 198.38 0.5 195.78 0.5L195.78 0.5Q193.13 0.5 190.91-0.48 188.68-1.45 187.03-3.15 185.38-4.85 184.46-7.13 183.53-9.4 183.53-12L183.53-12Q183.53-17.3 187.03-20.85ZM195.78-20.3L195.78-20.3Q192.28-20.3 190.16-18 188.03-15.7 188.03-12 188.03-8.3 190.16-6 192.28-3.7 195.78-3.7L195.78-3.7Q199.33-3.7 201.43-6.03 203.53-8.35 203.53-12 203.53-15.65 201.43-17.98 199.33-20.3 195.78-20.3ZM221.88-14.45L227.08-24 231.93-24 225.88-13.55Q232.03-11.9 232.03-3.6L232.03-3.6 232.03 0 227.63 0 227.63-3.65Q227.63-7 225.65-8.83 223.68-10.65 220.03-10.65L220.03-10.65Q218.88-10.65 217.68-10.5L217.68-10.5 217.68 0 213.28 0 213.28-35 217.68-35 217.68-14.45Q219.78-14.75 221.88-14.45L221.88-14.45ZM249.03-24.5L249.03-24.5Q257.53-24.15 257.53-17.45L257.53-17.45Q257.53-9.1 246.58-9.1L246.58-9.1 244.53-9.1 244.53-12.95 246.93-12.95Q250.28-12.95 251.58-13.98 252.88-15 252.88-17.4L252.88-17.4Q252.88-18.95 251.73-19.73 250.58-20.5 248.78-20.5L248.78-20.5Q245.23-20.5 243.2-18 241.18-15.5 241.18-12L241.18-12Q241.18-8.3 243.35-6 245.53-3.7 249.03-3.7L249.03-3.7Q252.18-3.7 254.18-5.25L254.18-5.25 257.18-2.3Q253.73 0.5 249.03 0.5L249.03 0.5Q243.33 0.5 239.93-2.85 236.53-6.2 236.53-11.5L236.53-11.5Q236.53-17.4 239.88-21.05 243.23-24.7 249.03-24.5ZM262.77 0L262.77-24 271.42-24Q276.97-24 279.37-22.35L279.37-22.35Q281.52-20.9 282.1-18.88 282.67-16.85 282.67-13.55L282.67-13.55 282.67 0 278.27 0 278.27-13.5Q278.27-14.4 278.22-15.03 278.17-15.65 277.87-16.63 277.57-17.6 277.02-18.23 276.47-18.85 275.42-19.33 274.37-19.8 272.87-19.8L272.87-19.8 267.17-19.8 267.17 0 262.77 0ZM316.97-4.4L316.97-4.4 320.57-4.4 320.57-14.9 315.42-14.9 315.42-19.3 325.27-19.3 325.27 0 317.57 0Q309.52 0 304.94-4.58 300.37-9.15 300.32-17.5L300.32-17.5Q300.37-25.85 304.94-30.43 309.52-35 317.57-35L317.57-35 323.32-35 323.32-30.6 316.97-30.6Q311.42-30.6 308.44-26.93 305.47-23.25 305.37-17.5L305.37-17.5Q305.47-11.75 308.44-8.08 311.42-4.4 316.97-4.4ZM342.76-24.5L342.76-24.5Q351.26-24.15 351.26-17.45L351.26-17.45Q351.26-9.1 340.31-9.1L340.31-9.1 338.26-9.1 338.26-12.95 340.66-12.95Q344.01-12.95 345.31-13.98 346.62-15 346.62-17.4L346.62-17.4Q346.62-18.95 345.46-19.73 344.31-20.5 342.51-20.5L342.51-20.5Q338.96-20.5 336.94-18 334.91-15.5 334.91-12L334.91-12Q334.91-8.3 337.09-6 339.26-3.7 342.76-3.7L342.76-3.7Q345.91-3.7 347.91-5.25L347.91-5.25 350.91-2.3Q347.46 0.5 342.76 0.5L342.76 0.5Q337.06 0.5 333.66-2.85 330.26-6.2 330.26-11.5L330.26-11.5Q330.26-17.4 333.62-21.05 336.96-24.7 342.76-24.5ZM356.51 0L356.51-24 365.16-24Q370.71-24 373.11-22.35L373.11-22.35Q375.26-20.9 375.84-18.88 376.41-16.85 376.41-13.55L376.41-13.55 376.41 0 372.01 0 372.01-13.5Q372.01-14.4 371.96-15.03 371.91-15.65 371.61-16.63 371.31-17.6 370.76-18.23 370.21-18.85 369.16-19.33 368.11-19.8 366.61-19.8L366.61-19.8 360.91-19.8 360.91 0 356.51 0ZM394.16-24.5L394.16-24.5Q402.66-24.15 402.66-17.45L402.66-17.45Q402.66-9.1 391.71-9.1L391.71-9.1 389.66-9.1 389.66-12.95 392.06-12.95Q395.41-12.95 396.71-13.98 398.01-15 398.01-17.4L398.01-17.4Q398.01-18.95 396.86-19.73 395.71-20.5 393.91-20.5L393.91-20.5Q390.36-20.5 388.33-18 386.31-15.5 386.31-12L386.31-12Q386.31-8.3 388.48-6 390.66-3.7 394.16-3.7L394.16-3.7Q397.31-3.7 399.31-5.25L399.31-5.25 402.31-2.3Q398.86 0.5 394.16 0.5L394.16 0.5Q388.46 0.5 385.06-2.85 381.66-6.2 381.66-11.5L381.66-11.5Q381.66-17.4 385.01-21.05 388.36-24.7 394.16-24.5ZM411.31 0L406.91 0 406.91-13.65Q406.91-19.4 409.06-21.6L409.06-21.6Q410.11-22.7 411.61-23.25 413.11-23.8 414.23-23.9 415.36-24 417.31-24L417.31-24 421.71-24 421.71-19.8 416.41-19.8Q415.41-19.8 414.86-19.75 414.31-19.7 413.56-19.4 412.81-19.1 412.26-18.45L412.26-18.45Q411.31-17.25 411.31-13.65L411.31-13.65 411.31 0ZM438.31-14.1L438.31-14.1 438.31-9.6Q436.4-11.05 433.65-11.05L433.65-11.05Q431.31-11.05 430-10.13 428.7-9.2 428.7-7.5L428.7-7.5Q428.7-4.2 433.6-4.2L433.6-4.2 440.2-4.2 440.2-13.75Q440.2-19.8 434.31-19.8L434.31-19.8 426.31-19.8 426.31-24 434.56-24Q439.4-24 442-21.6 444.6-19.2 444.6-14.7L444.6-14.7 444.6 0 433.45 0Q429.2 0 426.7-1.9 424.2-3.8 424.2-7.45 424.2-11.1 426.85-13 429.5-14.9 433.5-14.9L433.5-14.9Q435.75-14.9 438.31-14.1ZM452.05-19.8L447.6-19.8 456.55-28.75 456.55-24 463.3-24 463.3-19.8 456.55-19.8 456.55-9.5Q456.55-7.75 457.13-6.6 457.7-5.45 458.8-4.98 459.9-4.5 460.88-4.35 461.85-4.2 463.3-4.2L463.3-4.2 463.3 0Q457.55 0 454.8-2.2 452.05-4.4 452.05-9.5L452.05-9.5 452.05-19.8ZM470.8-20.85L470.8-20.85Q474.3-24.5 479.55-24.5L479.55-24.5Q482.1-24.5 484.32-23.53 486.55-22.55 488.22-20.85 489.9-19.15 490.85-16.88 491.8-14.6 491.8-12L491.8-12Q491.8-9.4 490.87-7.13 489.95-4.85 488.3-3.15 486.65-1.45 484.4-0.48 482.15 0.5 479.55 0.5L479.55 0.5Q476.9 0.5 474.67-0.48 472.45-1.45 470.8-3.15 469.15-4.85 468.22-7.13 467.3-9.4 467.3-12L467.3-12Q467.3-17.3 470.8-20.85ZM479.55-20.3L479.55-20.3Q476.05-20.3 473.92-18 471.8-15.7 471.8-12 471.8-8.3 473.92-6 476.05-3.7 479.55-3.7L479.55-3.7Q483.1-3.7 485.2-6.03 487.3-8.35 487.3-12 487.3-15.65 485.2-17.98 483.1-20.3 479.55-20.3ZM500.7 0L496.3 0 496.3-13.65Q496.3-19.4 498.45-21.6L498.45-21.6Q499.5-22.7 501-23.25 502.5-23.8 503.62-23.9 504.75-24 506.7-24L506.7-24 511.1-24 511.1-19.8 505.8-19.8Q504.8-19.8 504.25-19.75 503.7-19.7 502.95-19.4 502.2-19.1 501.65-18.45L501.65-18.45Q500.7-17.25 500.7-13.65L500.7-13.65 500.7 0Z" opacity="1" transform="matrix(1,0,0,1,0,0)" fill="#bb84e8" class="wordmark-text-0" data-fill-palette-color="primary" id="text-0"></path></svg></g></svg></g><g transform="matrix(1,0,0,1,0,44.64159199001869)"><svg viewBox="0 0 232.209792 11.419607912827376" height="11.419607912827376" width="232.209792"><g transform="matrix(1,0,0,1,0,0)"><svg width="232.209792" viewBox="3.1 -39.55 1046.1100000000001 51.449999999999996" height="11.419607912827376" data-palette-color="#471aa0"><path d="M22.55 0.5L22.55 0.5Q18.5 0.5 14.98-1.05 11.45-2.6 8.78-5.38 6.1-8.15 4.6-11.78 3.1-15.4 3.1-19.55L3.1-19.55Q3.1-23.65 4.58-27.28 6.05-30.9 8.72-33.65 11.4-36.4 14.93-37.98 18.45-39.55 22.55-39.55L22.55-39.55Q26.15-39.55 29.1-38.5 32.05-37.45 34.8-35.15L34.8-35.15Q35.25-34.8 35.33-34.33 35.4-33.85 35.2-33.43 35-33 34.6-32.8L34.6-32.8Q34.5-32.4 34.1-32.2 33.7-32 33.18-32.05 32.65-32.1 32.15-32.5L32.15-32.5Q30.2-34.2 27.9-35.02 25.6-35.85 22.55-35.85L22.55-35.85Q19.3-35.85 16.48-34.55 13.65-33.25 11.5-31 9.35-28.75 8.13-25.8 6.9-22.85 6.9-19.55L6.9-19.55Q6.9-16.15 8.13-13.2 9.35-10.25 11.5-8 13.65-5.75 16.48-4.48 19.3-3.2 22.55-3.2L22.55-3.2Q25.3-3.2 27.75-4.1 30.2-5 32.4-6.7L32.4-6.7Q33-7.2 33.68-7.1 34.35-7 34.85-6.5 35.35-6 35.35-5.2L35.35-5.2Q35.35-4.8 35.25-4.48 35.15-4.15 34.8-3.8L34.8-3.8Q32.25-1.45 29.1-0.48 25.95 0.5 22.55 0.5ZM35.35-17.6L35.35-5.2 31.55-6 31.55-16.05 23.75-16.05Q22.9-16.05 22.35-16.55 21.8-17.05 21.8-17.8L21.8-17.8Q21.8-18.55 22.35-19.03 22.9-19.5 23.75-19.5L23.75-19.5 33.4-19.5Q34.25-19.5 34.8-18.98 35.35-18.45 35.35-17.6L35.35-17.6ZM53.45 0.25L53.45 0.25Q49.4 0.25 46.27-1.53 43.15-3.3 41.37-6.45 39.6-9.6 39.6-13.65L39.6-13.65Q39.6-17.75 41.27-20.88 42.95-24 45.9-25.8 48.85-27.6 52.7-27.6L52.7-27.6Q56.5-27.6 59.32-25.88 62.15-24.15 63.7-21.1 65.25-18.05 65.25-14.15L65.25-14.15Q65.25-13.35 64.75-12.88 64.25-12.4 63.45-12.4L63.45-12.4 42.2-12.4 42.2-15.6 63.85-15.6 61.7-14.05Q61.75-16.95 60.65-19.25 59.55-21.55 57.52-22.85 55.5-24.15 52.7-24.15L52.7-24.15Q49.85-24.15 47.7-22.8 45.55-21.45 44.37-19.07 43.2-16.7 43.2-13.65L43.2-13.65Q43.2-10.6 44.52-8.25 45.85-5.9 48.15-4.55 50.45-3.2 53.45-3.2L53.45-3.2Q55.25-3.2 57.07-3.83 58.9-4.45 60-5.4L60-5.4Q60.55-5.85 61.25-5.88 61.95-5.9 62.45-5.5L62.45-5.5Q63.1-4.9 63.12-4.2 63.15-3.5 62.55-3L62.55-3Q60.9-1.6 58.35-0.68 55.8 0.25 53.45 0.25ZM95.2 0L95.2 0Q94.34 0 93.8-0.55 93.25-1.1 93.25-1.9L93.25-1.9 93.25-14.9Q93.25-18 92.07-20 90.9-22 88.87-23 86.84-24 84.3-24L84.3-24Q81.84-24 79.87-23.05 77.9-22.1 76.75-20.45 75.59-18.8 75.59-16.7L75.59-16.7 72.84-16.7Q72.95-19.85 74.55-22.33 76.15-24.8 78.8-26.23 81.45-27.65 84.7-27.65L84.7-27.65Q88.25-27.65 91.05-26.18 93.84-24.7 95.47-21.85 97.09-19 97.09-14.9L97.09-14.9 97.09-1.9Q97.09-1.1 96.55-0.55 96 0 95.2 0ZM73.7 0L73.7 0Q72.8 0 72.27-0.53 71.75-1.05 71.75-1.9L71.75-1.9 71.75-25.4Q71.75-26.3 72.27-26.83 72.8-27.35 73.7-27.35L73.7-27.35Q74.55-27.35 75.07-26.83 75.59-26.3 75.59-25.4L75.59-25.4 75.59-1.9Q75.59-1.05 75.07-0.53 74.55 0 73.7 0ZM117.99 0.25L117.99 0.25Q113.94 0.25 110.82-1.53 107.69-3.3 105.92-6.45 104.14-9.6 104.14-13.65L104.14-13.65Q104.14-17.75 105.82-20.88 107.49-24 110.44-25.8 113.39-27.6 117.24-27.6L117.24-27.6Q121.04-27.6 123.87-25.88 126.69-24.15 128.24-21.1 129.79-18.05 129.79-14.15L129.79-14.15Q129.79-13.35 129.29-12.88 128.79-12.4 127.99-12.4L127.99-12.4 106.74-12.4 106.74-15.6 128.39-15.6 126.24-14.05Q126.29-16.95 125.19-19.25 124.09-21.55 122.07-22.85 120.04-24.15 117.24-24.15L117.24-24.15Q114.39-24.15 112.24-22.8 110.09-21.45 108.92-19.07 107.74-16.7 107.74-13.65L107.74-13.65Q107.74-10.6 109.07-8.25 110.39-5.9 112.69-4.55 114.99-3.2 117.99-3.2L117.99-3.2Q119.79-3.2 121.62-3.83 123.44-4.45 124.54-5.4L124.54-5.4Q125.09-5.85 125.79-5.88 126.49-5.9 126.99-5.5L126.99-5.5Q127.64-4.9 127.67-4.2 127.69-3.5 127.09-3L127.09-3Q125.44-1.6 122.89-0.68 120.34 0.25 117.99 0.25ZM140.09-16.85L137.89-16.85Q138.04-19.95 139.52-22.4 140.99-24.85 143.37-26.25 145.74-27.65 148.64-27.65L148.64-27.65Q150.94-27.65 152.19-27 153.44-26.35 153.14-25.1L153.14-25.1Q152.94-24.35 152.47-24.1 151.99-23.85 151.32-23.9 150.64-23.95 149.79-24L149.79-24Q146.99-24.25 144.82-23.43 142.64-22.6 141.37-20.9 140.09-19.2 140.09-16.85L140.09-16.85ZM138.19 0L138.19 0Q137.29 0 136.79-0.5 136.29-1 136.29-1.9L136.29-1.9 136.29-25.45Q136.29-26.35 136.79-26.85 137.29-27.35 138.19-27.35L138.19-27.35Q139.09-27.35 139.59-26.85 140.09-26.35 140.09-25.45L140.09-25.45 140.09-1.9Q140.09-1 139.59-0.5 139.09 0 138.19 0ZM169.24 0.25L169.24 0.25Q165.39 0.25 162.34-1.58 159.29-3.4 157.51-6.55 155.74-9.7 155.74-13.65L155.74-13.65Q155.74-17.65 157.56-20.8 159.39-23.95 162.54-25.78 165.69-27.6 169.64-27.6L169.64-27.6Q173.59-27.6 176.71-25.78 179.84-23.95 181.66-20.8 183.49-17.65 183.54-13.65L183.54-13.65 181.99-12.45Q181.99-8.85 180.31-5.98 178.64-3.1 175.76-1.43 172.89 0.25 169.24 0.25ZM169.64-3.25L169.64-3.25Q172.54-3.25 174.81-4.6 177.09-5.95 178.41-8.33 179.74-10.7 179.74-13.65L179.74-13.65Q179.74-16.65 178.41-19 177.09-21.35 174.81-22.73 172.54-24.1 169.64-24.1L169.64-24.1Q166.79-24.1 164.49-22.73 162.19-21.35 160.84-19 159.49-16.65 159.49-13.65L159.49-13.65Q159.49-10.7 160.84-8.33 162.19-5.95 164.49-4.6 166.79-3.25 169.64-3.25ZM181.59 0L181.59 0Q180.74 0 180.19-0.53 179.64-1.05 179.64-1.9L179.64-1.9 179.64-10.45 180.59-14.4 183.54-13.65 183.54-1.9Q183.54-1.05 182.99-0.53 182.44 0 181.59 0ZM202.79 0L201.74 0Q199.09 0 197.01-1.25 194.94-2.5 193.74-4.67 192.54-6.85 192.54-9.65L192.54-9.65 192.54-34.1Q192.54-34.95 193.06-35.5 193.59-36.05 194.44-36.05L194.44-36.05Q195.29-36.05 195.84-35.5 196.39-34.95 196.39-34.1L196.39-34.1 196.39-9.65Q196.39-7.1 197.89-5.48 199.39-3.85 201.74-3.85L201.74-3.85 203.09-3.85Q203.89-3.85 204.39-3.3 204.89-2.75 204.89-1.9L204.89-1.9Q204.89-1.05 204.29-0.53 203.69 0 202.79 0L202.79 0ZM202.04-23L189.29-23Q188.54-23 188.04-23.48 187.54-23.95 187.54-24.65L187.54-24.65Q187.54-25.4 188.04-25.88 188.54-26.35 189.29-26.35L189.29-26.35 202.04-26.35Q202.79-26.35 203.29-25.88 203.79-25.4 203.79-24.65L203.79-24.65Q203.79-23.95 203.29-23.48 202.79-23 202.04-23L202.04-23ZM223.53 0.25L223.53 0.25Q219.48 0.25 216.36-1.53 213.23-3.3 211.46-6.45 209.68-9.6 209.68-13.65L209.68-13.65Q209.68-17.75 211.36-20.88 213.03-24 215.98-25.8 218.93-27.6 222.78-27.6L222.78-27.6Q226.58-27.6 229.41-25.88 232.23-24.15 233.78-21.1 235.33-18.05 235.33-14.15L235.33-14.15Q235.33-13.35 234.83-12.88 234.33-12.4 233.53-12.4L233.53-12.4 212.28-12.4 212.28-15.6 233.93-15.6 231.78-14.05Q231.83-16.95 230.73-19.25 229.63-21.55 227.61-22.85 225.58-24.15 222.78-24.15L222.78-24.15Q219.93-24.15 217.78-22.8 215.63-21.45 214.46-19.07 213.28-16.7 213.28-13.65L213.28-13.65Q213.28-10.6 214.61-8.25 215.93-5.9 218.23-4.55 220.53-3.2 223.53-3.2L223.53-3.2Q225.33-3.2 227.16-3.83 228.98-4.45 230.08-5.4L230.08-5.4Q230.63-5.85 231.33-5.88 232.03-5.9 232.53-5.5L232.53-5.5Q233.18-4.9 233.21-4.2 233.23-3.5 232.63-3L232.63-3Q230.98-1.6 228.43-0.68 225.88 0.25 223.53 0.25ZM261.18 11.9L261.18 11.9Q260.78 11.9 260.28 11.7L260.28 11.7Q258.58 10.95 259.33 9.3L259.33 9.3 275.48-26.3Q276.23-27.9 277.88-27.2L277.88-27.2Q279.58-26.5 278.83-24.85L278.83-24.85 262.63 10.75Q262.13 11.9 261.18 11.9ZM266.73-0.85L266.73-0.85Q265.98-0.5 265.33-0.73 264.68-0.95 264.28-1.7L264.28-1.7 253.13-24.8Q252.78-25.55 253.03-26.2 253.28-26.85 254.03-27.2L254.03-27.2Q254.78-27.55 255.43-27.33 256.08-27.1 256.43-26.35L256.43-26.35 267.38-3.25Q267.78-2.5 267.63-1.85 267.48-1.2 266.73-0.85ZM295.33 0.25L295.33 0.25Q291.33 0.25 288.18-1.55 285.03-3.35 283.23-6.5 281.43-9.65 281.43-13.65L281.43-13.65Q281.43-17.7 283.23-20.85 285.03-24 288.18-25.8 291.33-27.6 295.33-27.6L295.33-27.6Q299.33-27.6 302.45-25.8 305.58-24 307.38-20.85 309.18-17.7 309.23-13.65L309.23-13.65Q309.23-9.65 307.4-6.5 305.58-3.35 302.45-1.55 299.33 0.25 295.33 0.25ZM295.33-3.25L295.33-3.25Q298.23-3.25 300.53-4.6 302.83-5.95 304.13-8.3 305.43-10.65 305.43-13.65L305.43-13.65Q305.43-16.65 304.13-19.03 302.83-21.4 300.53-22.75 298.23-24.1 295.33-24.1L295.33-24.1Q292.43-24.1 290.13-22.75 287.83-21.4 286.5-19.03 285.18-16.65 285.18-13.65L285.18-13.65Q285.18-10.65 286.5-8.3 287.83-5.95 290.13-4.6 292.43-3.25 295.33-3.25ZM328.62 0.3L328.62 0.3Q325.07 0.3 322.27-1.18 319.47-2.65 317.85-5.5 316.22-8.35 316.22-12.45L316.22-12.45 316.22-25.45Q316.22-26.25 316.77-26.8 317.32-27.35 318.12-27.35L318.12-27.35Q318.97-27.35 319.52-26.8 320.07-26.25 320.07-25.45L320.07-25.45 320.07-12.45Q320.07-9.35 321.25-7.35 322.42-5.35 324.45-4.35 326.47-3.35 329.02-3.35L329.02-3.35Q331.47-3.35 333.45-4.3 335.42-5.25 336.57-6.9 337.72-8.55 337.72-10.65L337.72-10.65 340.47-10.65Q340.32-7.5 338.75-5.03 337.17-2.55 334.52-1.13 331.87 0.3 328.62 0.3ZM339.62 0L339.62 0Q338.77 0 338.25-0.53 337.72-1.05 337.72-1.95L337.72-1.95 337.72-25.45Q337.72-26.3 338.25-26.83 338.77-27.35 339.62-27.35L339.62-27.35Q340.47-27.35 341.02-26.83 341.57-26.3 341.57-25.45L341.57-25.45 341.57-1.95Q341.57-1.05 341.02-0.53 340.47 0 339.62 0ZM354.37-16.85L352.17-16.85Q352.32-19.95 353.8-22.4 355.27-24.85 357.65-26.25 360.02-27.65 362.92-27.65L362.92-27.65Q365.22-27.65 366.47-27 367.72-26.35 367.42-25.1L367.42-25.1Q367.22-24.35 366.75-24.1 366.27-23.85 365.6-23.9 364.92-23.95 364.07-24L364.07-24Q361.27-24.25 359.1-23.43 356.92-22.6 355.65-20.9 354.37-19.2 354.37-16.85L354.37-16.85ZM352.47 0L352.47 0Q351.57 0 351.07-0.5 350.57-1 350.57-1.9L350.57-1.9 350.57-25.45Q350.57-26.35 351.07-26.85 351.57-27.35 352.47-27.35L352.47-27.35Q353.37-27.35 353.87-26.85 354.37-26.35 354.37-25.45L354.37-25.45 354.37-1.9Q354.37-1 353.87-0.5 353.37 0 352.47 0ZM414.02 0L390.57 0Q389.72 0 389.17-0.55 388.62-1.1 388.62-1.95L388.62-1.95 388.62-37.1Q388.62-37.95 389.17-38.5 389.72-39.05 390.57-39.05L390.57-39.05 414.02-39.05Q414.82-39.05 415.39-38.53 415.97-38 415.97-37.15L415.97-37.15Q415.97-36.4 415.39-35.85 414.82-35.3 414.02-35.3L414.02-35.3 392.52-35.3 392.52-21.5 408.17-21.5Q409.02-21.5 409.57-20.95 410.12-20.4 410.12-19.6L410.12-19.6Q410.12-18.8 409.57-18.25 409.02-17.7 408.17-17.7L408.17-17.7 392.52-17.7 392.52-3.75 414.02-3.75Q414.82-3.75 415.39-3.2 415.97-2.65 415.97-1.9L415.97-1.9Q415.97-1.05 415.39-0.53 414.82 0 414.02 0L414.02 0ZM425.16 0L425.16 0Q424.31 0 423.76-0.55 423.21-1.1 423.21-1.95L423.21-1.95 423.21-37.1Q423.21-37.95 423.76-38.5 424.31-39.05 425.16-39.05L425.16-39.05 434.51-39.05Q438.16-39.05 441.01-37.52 443.86-36 445.49-33.27 447.11-30.55 447.11-27L447.11-27Q447.11-23.6 445.49-20.95 443.86-18.3 441.01-16.8 438.16-15.3 434.51-15.3L434.51-15.3 427.11-15.3 427.11-1.95Q427.11-1.1 426.56-0.55 426.01 0 425.16 0ZM446.06 0L446.06 0Q445.41 0 445.04-0.25 444.66-0.5 444.36-1L444.36-1 434.76-16.3 438.66-17.3 447.61-3Q448.36-1.8 447.89-0.9 447.41 0 446.06 0ZM427.11-35.3L427.11-19.05 434.51-19.05Q437.06-19.05 439.04-20.08 441.01-21.1 442.16-22.9 443.31-24.7 443.31-27L443.31-27Q443.31-29.45 442.16-31.33 441.01-33.2 439.04-34.25 437.06-35.3 434.51-35.3L434.51-35.3 427.11-35.3ZM471.66 0.5L471.66 0.5Q467.61 0.5 464.09-1.05 460.56-2.6 457.89-5.38 455.21-8.15 453.71-11.78 452.21-15.4 452.21-19.55L452.21-19.55Q452.21-23.65 453.69-27.28 455.16-30.9 457.84-33.65 460.51-36.4 464.04-37.98 467.56-39.55 471.66-39.55L471.66-39.55Q475.26-39.55 478.21-38.5 481.16-37.45 483.91-35.15L483.91-35.15Q484.36-34.8 484.44-34.33 484.51-33.85 484.31-33.43 484.11-33 483.71-32.8L483.71-32.8Q483.61-32.4 483.21-32.2 482.81-32 482.29-32.05 481.76-32.1 481.26-32.5L481.26-32.5Q479.31-34.2 477.01-35.02 474.71-35.85 471.66-35.85L471.66-35.85Q468.41-35.85 465.59-34.55 462.76-33.25 460.61-31 458.46-28.75 457.24-25.8 456.01-22.85 456.01-19.55L456.01-19.55Q456.01-16.15 457.24-13.2 458.46-10.25 460.61-8 462.76-5.75 465.59-4.48 468.41-3.2 471.66-3.2L471.66-3.2Q474.41-3.2 476.86-4.1 479.31-5 481.51-6.7L481.51-6.7Q482.11-7.2 482.79-7.1 483.46-7 483.96-6.5 484.46-6 484.46-5.2L484.46-5.2Q484.46-4.8 484.34-4.48 484.21-4.15 483.91-3.8L483.91-3.8Q481.36-1.45 478.21-0.48 475.06 0.5 471.66 0.5ZM512.41 0L493.16 0Q492.36 0 491.78-0.55 491.21-1.1 491.21-1.95L491.21-1.95Q491.21-2.7 491.76-3.3L491.76-3.3 506.91-21.2Q508.16-22.55 508.91-24.23 509.66-25.9 509.66-27.35L509.66-27.35Q509.66-29.7 508.73-31.5 507.81-33.3 506.13-34.33 504.46-35.35 502.31-35.35L502.31-35.35Q500.21-35.35 498.48-34.27 496.76-33.2 495.78-31.4 494.81-29.6 494.81-27.35L494.81-27.35Q494.81-26.55 494.26-26 493.71-25.45 492.86-25.45L492.86-25.45Q492.06-25.45 491.48-26 490.91-26.55 490.91-27.35L490.91-27.35Q490.91-30.7 492.41-33.35 493.91-36 496.48-37.55 499.06-39.1 502.31-39.1L502.31-39.1Q505.56-39.1 508.08-37.6 510.61-36.1 512.03-33.45 513.46-30.8 513.46-27.35L513.46-27.35Q513.46-25.7 512.93-24.2 512.41-22.7 511.51-21.33 510.61-19.95 509.56-18.75L509.56-18.75 496.76-3.9 512.41-3.9Q513.21-3.9 513.78-3.3 514.36-2.7 514.36-1.95L514.36-1.95Q514.36-1.1 513.78-0.55 513.21 0 512.41 0L512.41 0ZM530.96 0L530.96 0Q527.25 0 524.61-2.35 521.96-4.7 520.58-9.08 519.21-13.45 519.21-19.6L519.21-19.6Q519.21-25.65 520.58-30.05 521.96-34.45 524.61-36.8 527.25-39.15 530.96-39.15L530.96-39.15Q534.75-39.15 537.38-36.77 540-34.4 541.38-30 542.75-25.6 542.75-19.6L542.75-19.6Q542.75-13.5 541.38-9.13 540-4.75 537.38-2.38 534.75 0 530.96 0ZM530.96-3.9L530.96-3.9Q533.66-3.9 535.41-5.93 537.16-7.95 538-11.5 538.86-15.05 538.86-19.6L538.86-19.6Q538.86-24.1 537.98-27.63 537.11-31.15 535.36-33.2 533.61-35.25 530.96-35.25L530.96-35.25Q528.31-35.25 526.58-33.23 524.86-31.2 523.98-27.65 523.11-24.1 523.11-19.6L523.11-19.6Q523.11-15 523.98-11.48 524.86-7.95 526.58-5.93 528.31-3.9 530.96-3.9ZM576.15 0L575.1 0Q572.45 0 570.37-1.25 568.3-2.5 567.1-4.67 565.9-6.85 565.9-9.65L565.9-9.65 565.9-34.1Q565.9-34.95 566.42-35.5 566.95-36.05 567.8-36.05L567.8-36.05Q568.65-36.05 569.2-35.5 569.75-34.95 569.75-34.1L569.75-34.1 569.75-9.65Q569.75-7.1 571.25-5.48 572.75-3.85 575.1-3.85L575.1-3.85 576.45-3.85Q577.25-3.85 577.75-3.3 578.25-2.75 578.25-1.9L578.25-1.9Q578.25-1.05 577.65-0.53 577.05 0 576.15 0L576.15 0ZM575.4-23L562.65-23Q561.9-23 561.4-23.48 560.9-23.95 560.9-24.65L560.9-24.65Q560.9-25.4 561.4-25.88 561.9-26.35 562.65-26.35L562.65-26.35 575.4-26.35Q576.15-26.35 576.65-25.88 577.15-25.4 577.15-24.65L577.15-24.65Q577.15-23.95 576.65-23.48 576.15-23 575.4-23L575.4-23ZM596.95 0.25L596.95 0.25Q592.95 0.25 589.8-1.55 586.65-3.35 584.85-6.5 583.05-9.65 583.05-13.65L583.05-13.65Q583.05-17.7 584.85-20.85 586.65-24 589.8-25.8 592.95-27.6 596.95-27.6L596.95-27.6Q600.95-27.6 604.07-25.8 607.2-24 609-20.85 610.8-17.7 610.85-13.65L610.85-13.65Q610.85-9.65 609.02-6.5 607.2-3.35 604.07-1.55 600.95 0.25 596.95 0.25ZM596.95-3.25L596.95-3.25Q599.85-3.25 602.15-4.6 604.45-5.95 605.75-8.3 607.05-10.65 607.05-13.65L607.05-13.65Q607.05-16.65 605.75-19.03 604.45-21.4 602.15-22.75 599.85-24.1 596.95-24.1L596.95-24.1Q594.05-24.1 591.75-22.75 589.45-21.4 588.12-19.03 586.8-16.65 586.8-13.65L586.8-13.65Q586.8-10.65 588.12-8.3 589.45-5.95 591.75-4.6 594.05-3.25 596.95-3.25ZM638.59-24.6L621.49-9.15 619.14-11.7 636.24-27.15Q636.84-27.7 637.49-27.68 638.14-27.65 638.69-27.05L638.69-27.05Q639.24-26.45 639.22-25.78 639.19-25.1 638.59-24.6L638.59-24.6ZM620.24 0L620.24 0Q619.39 0 618.87-0.53 618.34-1.05 618.34-1.9L618.34-1.9 618.34-37.15Q618.34-38 618.87-38.53 619.39-39.05 620.24-39.05L620.24-39.05Q621.09-39.05 621.62-38.53 622.14-38 622.14-37.15L622.14-37.15 622.14-1.9Q622.14-1.05 621.62-0.53 621.09 0 620.24 0ZM638.74-0.25L638.74-0.25Q638.09 0.3 637.39 0.23 636.69 0.15 636.19-0.5L636.19-0.5 625.04-14.2 627.74-16.6 638.99-2.75Q639.49-2.15 639.44-1.48 639.39-0.8 638.74-0.25ZM656.84 0.25L656.84 0.25Q652.79 0.25 649.67-1.53 646.54-3.3 644.77-6.45 642.99-9.6 642.99-13.65L642.99-13.65Q642.99-17.75 644.67-20.88 646.34-24 649.29-25.8 652.24-27.6 656.09-27.6L656.09-27.6Q659.89-27.6 662.72-25.88 665.54-24.15 667.09-21.1 668.64-18.05 668.64-14.15L668.64-14.15Q668.64-13.35 668.14-12.88 667.64-12.4 666.84-12.4L666.84-12.4 645.59-12.4 645.59-15.6 667.24-15.6 665.09-14.05Q665.14-16.95 664.04-19.25 662.94-21.55 660.92-22.85 658.89-24.15 656.09-24.15L656.09-24.15Q653.24-24.15 651.09-22.8 648.94-21.45 647.77-19.07 646.59-16.7 646.59-13.65L646.59-13.65Q646.59-10.6 647.92-8.25 649.24-5.9 651.54-4.55 653.84-3.2 656.84-3.2L656.84-3.2Q658.64-3.2 660.47-3.83 662.29-4.45 663.39-5.4L663.39-5.4Q663.94-5.85 664.64-5.88 665.34-5.9 665.84-5.5L665.84-5.5Q666.49-4.9 666.52-4.2 666.54-3.5 665.94-3L665.94-3Q664.29-1.6 661.74-0.68 659.19 0.25 656.84 0.25ZM698.59 0L698.59 0Q697.74 0 697.19-0.55 696.64-1.1 696.64-1.9L696.64-1.9 696.64-14.9Q696.64-18 695.46-20 694.29-22 692.26-23 690.24-24 687.69-24L687.69-24Q685.24-24 683.26-23.05 681.29-22.1 680.14-20.45 678.99-18.8 678.99-16.7L678.99-16.7 676.24-16.7Q676.34-19.85 677.94-22.33 679.54-24.8 682.19-26.23 684.84-27.65 688.09-27.65L688.09-27.65Q691.64-27.65 694.44-26.18 697.24-24.7 698.86-21.85 700.49-19 700.49-14.9L700.49-14.9 700.49-1.9Q700.49-1.1 699.94-0.55 699.39 0 698.59 0ZM677.09 0L677.09 0Q676.19 0 675.66-0.53 675.14-1.05 675.14-1.9L675.14-1.9 675.14-25.4Q675.14-26.3 675.66-26.83 676.19-27.35 677.09-27.35L677.09-27.35Q677.94-27.35 678.46-26.83 678.99-26.3 678.99-25.4L678.99-25.4 678.99-1.9Q678.99-1.05 678.46-0.53 677.94 0 677.09 0ZM729.83 0L729.83 0Q729.18 0 728.68-0.35 728.18-0.7 727.98-1.25L727.98-1.25 720.18-24.65Q719.88-25.9 720.23-26.63 720.58-27.35 721.63-27.35L721.63-27.35Q722.28-27.35 722.78-27 723.28-26.65 723.53-25.9L723.53-25.9 730.48-4.65 729.38-4.65 735.83-25.85Q736.03-26.5 736.51-26.93 736.98-27.35 737.73-27.35L737.73-27.35Q738.48-27.35 738.96-26.95 739.43-26.55 739.63-25.85L739.63-25.85 745.78-5.15 744.93-5.15 751.73-25.9Q752.23-27.35 753.58-27.35L753.58-27.35Q754.68-27.35 755.08-26.53 755.48-25.7 755.08-24.65L755.08-24.65 747.28-1.25Q747.08-0.7 746.61-0.35 746.13 0 745.48 0L745.48 0Q744.83 0 744.31-0.35 743.78-0.7 743.63-1.25L743.63-1.25 737.33-22.15 737.93-22.15 731.63-1.25Q731.43-0.65 730.93-0.33 730.43 0 729.83 0ZM763.38 0L763.38 0Q762.48 0 761.96-0.53 761.43-1.05 761.43-1.95L761.43-1.95 761.43-25.4Q761.43-26.3 761.96-26.83 762.48-27.35 763.38-27.35L763.38-27.35Q764.23-27.35 764.76-26.83 765.28-26.3 765.28-25.4L765.28-25.4 765.28-1.95Q765.28-1.05 764.76-0.53 764.23 0 763.38 0ZM763.33-32.55L763.33-32.55Q762.23-32.55 761.43-33.35 760.63-34.15 760.63-35.3L760.63-35.3Q760.63-36.55 761.46-37.27 762.28-38 763.38-38L763.38-38Q764.43-38 765.26-37.27 766.08-36.55 766.08-35.3L766.08-35.3Q766.08-34.15 765.28-33.35 764.48-32.55 763.33-32.55ZM786.83 0L785.78 0Q783.13 0 781.05-1.25 778.98-2.5 777.78-4.67 776.58-6.85 776.58-9.65L776.58-9.65 776.58-34.1Q776.58-34.95 777.1-35.5 777.63-36.05 778.48-36.05L778.48-36.05Q779.33-36.05 779.88-35.5 780.43-34.95 780.43-34.1L780.43-34.1 780.43-9.65Q780.43-7.1 781.93-5.48 783.43-3.85 785.78-3.85L785.78-3.85 787.13-3.85Q787.93-3.85 788.43-3.3 788.93-2.75 788.93-1.9L788.93-1.9Q788.93-1.05 788.33-0.53 787.73 0 786.83 0L786.83 0ZM786.08-23L773.33-23Q772.58-23 772.08-23.48 771.58-23.95 771.58-24.65L771.58-24.65Q771.58-25.4 772.08-25.88 772.58-26.35 773.33-26.35L773.33-26.35 786.08-26.35Q786.83-26.35 787.33-25.88 787.83-25.4 787.83-24.65L787.83-24.65Q787.83-23.95 787.33-23.48 786.83-23 786.08-23L786.08-23ZM818.63 0L818.63 0Q817.78 0 817.23-0.55 816.68-1.1 816.68-1.9L816.68-1.9 816.68-14.9Q816.68-18 815.5-20 814.33-22 812.3-23 810.28-24 807.73-24L807.73-24Q805.28-24 803.3-23.05 801.33-22.1 800.18-20.45 799.03-18.8 799.03-16.7L799.03-16.7 796.28-16.7Q796.38-19.85 797.98-22.33 799.58-24.8 802.23-26.23 804.88-27.65 808.13-27.65L808.13-27.65Q811.68-27.65 814.48-26.18 817.28-24.7 818.9-21.85 820.53-19 820.53-14.9L820.53-14.9 820.53-1.9Q820.53-1.1 819.98-0.55 819.43 0 818.63 0ZM797.13 0L797.13 0Q796.23 0 795.7-0.53 795.18-1.05 795.18-1.9L795.18-1.9 795.18-25.4Q795.18-26.3 795.7-26.83 796.23-27.35 797.13-27.35L797.13-27.35Q797.98-27.35 798.5-26.83 799.03-26.3 799.03-25.4L799.03-25.4 799.03-1.9Q799.03-1.05 798.5-0.53 797.98 0 797.13 0ZM797.13-11.15L797.13-11.15Q796.23-11.15 795.7-11.7 795.18-12.25 795.18-13.1L795.18-13.1 795.18-37.1Q795.18-38 795.7-38.53 796.23-39.05 797.13-39.05L797.13-39.05Q797.98-39.05 798.5-38.53 799.03-38 799.03-37.1L799.03-37.1 799.03-13.1Q799.03-12.25 798.5-11.7 797.98-11.15 797.13-11.15ZM867.12 0L867.12 0Q866.27 0 865.72-0.55 865.17-1.1 865.17-1.9L865.17-1.9 865.17-14.9Q865.17-18 864-20 862.82-22 860.8-23 858.77-24 856.22-24L856.22-24Q853.77-24 851.8-23.05 849.82-22.1 848.67-20.45 847.52-18.8 847.52-16.7L847.52-16.7 844.77-16.7Q844.87-19.85 846.47-22.33 848.07-24.8 850.72-26.23 853.37-27.65 856.62-27.65L856.62-27.65Q860.17-27.65 862.97-26.18 865.77-24.7 867.4-21.85 869.02-19 869.02-14.9L869.02-14.9 869.02-1.9Q869.02-1.1 868.47-0.55 867.92 0 867.12 0ZM845.62 0L845.62 0Q844.72 0 844.2-0.53 843.67-1.05 843.67-1.9L843.67-1.9 843.67-25.4Q843.67-26.3 844.2-26.83 844.72-27.35 845.62-27.35L845.62-27.35Q846.47-27.35 847-26.83 847.52-26.3 847.52-25.4L847.52-25.4 847.52-1.9Q847.52-1.05 847-0.53 846.47 0 845.62 0ZM889.97 0.25L889.97 0.25Q885.97 0.25 882.82-1.55 879.67-3.35 877.87-6.5 876.07-9.65 876.07-13.65L876.07-13.65Q876.07-17.7 877.87-20.85 879.67-24 882.82-25.8 885.97-27.6 889.97-27.6L889.97-27.6Q893.97-27.6 897.09-25.8 900.22-24 902.02-20.85 903.82-17.7 903.87-13.65L903.87-13.65Q903.87-9.65 902.04-6.5 900.22-3.35 897.09-1.55 893.97 0.25 889.97 0.25ZM889.97-3.25L889.97-3.25Q892.87-3.25 895.17-4.6 897.47-5.95 898.77-8.3 900.07-10.65 900.07-13.65L900.07-13.65Q900.07-16.65 898.77-19.03 897.47-21.4 895.17-22.75 892.87-24.1 889.97-24.1L889.97-24.1Q887.07-24.1 884.77-22.75 882.47-21.4 881.14-19.03 879.82-16.65 879.82-13.65L879.82-13.65Q879.82-10.65 881.14-8.3 882.47-5.95 884.77-4.6 887.07-3.25 889.97-3.25ZM938.21 0.25L938.21 0.25Q934.26 0.25 931.19-1.58 928.11-3.4 926.34-6.55 924.56-9.7 924.56-13.65L924.56-13.65Q924.56-17.65 926.26-20.8 927.96-23.95 930.91-25.78 933.86-27.6 937.71-27.6L937.71-27.6Q940.76-27.6 943.34-26.4 945.91-25.2 947.86-22.8L947.86-22.8Q948.41-22.2 948.26-21.53 948.11-20.85 947.41-20.35L947.41-20.35Q946.86-19.95 946.19-20.08 945.51-20.2 945.01-20.8L945.01-20.8Q942.11-24.1 937.71-24.1L937.71-24.1Q934.91-24.1 932.79-22.75 930.66-21.4 929.49-19.05 928.31-16.7 928.31-13.65L928.31-13.65Q928.31-10.65 929.56-8.3 930.81-5.95 933.06-4.6 935.31-3.25 938.21-3.25L938.21-3.25Q940.16-3.25 941.79-3.78 943.41-4.3 944.66-5.4L944.66-5.4Q945.26-5.9 945.91-5.95 946.56-6 947.11-5.55L947.11-5.55Q947.71-5 947.79-4.3 947.86-3.6 947.31-3.1L947.31-3.1Q943.66 0.25 938.21 0.25ZM968.26 0.25L968.26 0.25Q964.26 0.25 961.11-1.55 957.96-3.35 956.16-6.5 954.36-9.65 954.36-13.65L954.36-13.65Q954.36-17.7 956.16-20.85 957.96-24 961.11-25.8 964.26-27.6 968.26-27.6L968.26-27.6Q972.26-27.6 975.39-25.8 978.51-24 980.31-20.85 982.11-17.7 982.16-13.65L982.16-13.65Q982.16-9.65 980.34-6.5 978.51-3.35 975.39-1.55 972.26 0.25 968.26 0.25ZM968.26-3.25L968.26-3.25Q971.16-3.25 973.46-4.6 975.76-5.95 977.06-8.3 978.36-10.65 978.36-13.65L978.36-13.65Q978.36-16.65 977.06-19.03 975.76-21.4 973.46-22.75 971.16-24.1 968.26-24.1L968.26-24.1Q965.36-24.1 963.06-22.75 960.76-21.4 959.44-19.03 958.11-16.65 958.11-13.65L958.11-13.65Q958.11-10.65 959.44-8.3 960.76-5.95 963.06-4.6 965.36-3.25 968.26-3.25ZM1002.11 0.25L1002.11 0.25Q998.16 0.25 995.01-1.58 991.86-3.4 990.03-6.55 988.21-9.7 988.21-13.7L988.21-13.7Q988.21-17.65 989.98-20.8 991.76-23.95 994.81-25.78 997.86-27.6 1001.71-27.6L1001.71-27.6Q1005.06-27.6 1007.76-26.18 1010.46-24.75 1012.11-22.4L1012.11-22.4 1012.11-37.1Q1012.11-38 1012.66-38.53 1013.21-39.05 1014.06-39.05L1014.06-39.05Q1014.91-39.05 1015.46-38.53 1016.01-38 1016.01-37.1L1016.01-37.1 1016.01-13.5Q1015.91-9.6 1014.08-6.48 1012.26-3.35 1009.13-1.55 1006.01 0.25 1002.11 0.25ZM1002.11-3.25L1002.11-3.25Q1005.01-3.25 1007.28-4.63 1009.56-6 1010.88-8.35 1012.21-10.7 1012.21-13.7L1012.21-13.7Q1012.21-16.65 1010.88-19.03 1009.56-21.4 1007.28-22.75 1005.01-24.1 1002.11-24.1L1002.11-24.1Q999.26-24.1 996.96-22.75 994.66-21.4 993.31-19.03 991.96-16.65 991.96-13.7L991.96-13.7Q991.96-10.7 993.31-8.35 994.66-6 996.96-4.63 999.26-3.25 1002.11-3.25ZM1037.41 0.25L1037.41 0.25Q1033.36 0.25 1030.23-1.53 1027.11-3.3 1025.33-6.45 1023.56-9.6 1023.56-13.65L1023.56-13.65Q1023.56-17.75 1025.23-20.88 1026.91-24 1029.86-25.8 1032.81-27.6 1036.66-27.6L1036.66-27.6Q1040.46-27.6 1043.28-25.88 1046.11-24.15 1047.66-21.1 1049.21-18.05 1049.21-14.15L1049.21-14.15Q1049.21-13.35 1048.71-12.88 1048.21-12.4 1047.41-12.4L1047.41-12.4 1026.16-12.4 1026.16-15.6 1047.81-15.6 1045.66-14.05Q1045.71-16.95 1044.61-19.25 1043.51-21.55 1041.48-22.85 1039.46-24.15 1036.66-24.15L1036.66-24.15Q1033.81-24.15 1031.66-22.8 1029.51-21.45 1028.33-19.07 1027.16-16.7 1027.16-13.65L1027.16-13.65Q1027.16-10.6 1028.48-8.25 1029.81-5.9 1032.11-4.55 1034.41-3.2 1037.41-3.2L1037.41-3.2Q1039.21-3.2 1041.03-3.83 1042.86-4.45 1043.96-5.4L1043.96-5.4Q1044.51-5.85 1045.21-5.88 1045.91-5.9 1046.41-5.5L1046.41-5.5Q1047.06-4.9 1047.08-4.2 1047.11-3.5 1046.51-3L1046.51-3Q1044.86-1.6 1042.31-0.68 1039.76 0.25 1037.41 0.25Z" opacity="1" transform="matrix(1,0,0,1,0,0)" fill="#471aa0" class="slogan-text-1" data-fill-palette-color="secondary" id="text-1"></path></svg></g></svg></g></svg></g></svg></g><g><svg viewBox="0 0 107.01758258329693 77.47657826573327" height="77.47657826573327" width="107.01758258329693"><g><svg xmlns="http://www.w3.org/2000/svg" xmlns:xlink="http://www.w3.org/1999/xlink" version="1.1" x="0" y="0" viewBox="2.483 15.491 94.244 68.229" enable-background="new 0 0 99.21 99.21" xml:space="preserve" height="77.47657826573327" width="107.01758258329693" class="icon-icon-0" data-fill-palette-color="accent" id="icon-0"><path d="M96.192 41.364C92.81 26.459 73.366 15.491 49.606 15.491c-23.763 0-43.204 10.97-46.589 25.874L2.483 53.268c0 16.791 21.138 30.452 47.123 30.452 25.981 0 47.121-13.661 47.121-30.452v-9.314L96.192 41.364zM11.298 67.472c-3.949-4.158-6.224-9.016-6.224-14.204v-7.324-1.99h0.125c-0.075 0.658-0.125 1.32-0.125 1.99 0 5.188 2.275 10.043 6.224 14.205V67.472zM15.715 64.045v7.288c-0.257-0.189-0.512-0.379-0.762-0.575v-7.323c0.268 0.208 0.541 0.41 0.817 0.61H15.715zM20.131 74.145c-0.257-0.143-0.511-0.281-0.762-0.428V66.39c0.251 0.146 0.505 0.29 0.762 0.432V74.145zM48.299 81.107c-9.127-0.164-17.562-2.044-24.514-5.146v-7.328c6.953 3.106 15.387 4.986 24.514 5.15V81.107zM52.717 81.054c-0.256 0.011-0.508 0.028-0.763 0.036v-7.323c0.255-0.011 0.507-0.024 0.763-0.036V81.054zM57.133 80.726c-0.254 0.028-0.507 0.062-0.762 0.085v-7.326c0.255-0.025 0.508-0.057 0.762-0.085V80.726zM75.404 75.972c-4.356 1.941-9.291 3.409-14.618 4.271v-7.326c5.327-0.859 10.262-2.33 14.618-4.271V75.972zM79.819 73.728c-0.25 0.146-0.505 0.289-0.761 0.428v-7.323c0.256-0.143 0.511-0.285 0.761-0.428V73.728zM84.237 70.775c-0.25 0.193-0.506 0.382-0.764 0.572v-7.303h-0.031c0.267-0.196 0.534-0.393 0.795-0.593V70.775zM49.606 70.687c-23.455 0-42.467-11.898-42.467-26.571 0-14.673 19.013-26.571 42.467-26.571 23.453 0 42.465 11.898 42.465 26.571C92.071 58.788 73.059 70.687 49.606 70.687zM94.138 45.943v7.324c0 5.199-2.285 10.063-6.246 14.229V60.17C91.853 56.005 94.138 51.142 94.138 45.943c0-0.669-0.052-1.332-0.127-1.99h0.127V45.943z" fill="#471aa0" data-fill-palette-color="accent"></path><path d="M29.501 28.573v3.5l4.623 7.975-9.974 7.713v3.5l18.94-0.138 10.885 8.954 5.683-10.48 18.111-3.257v-3.5l-15.43-6.329 0.307-10.976-15.225 6.56L29.501 28.573M58.737 44.824l-5.188 9.568-9.955-8.188-15.255 0.11 9.034-6.986-5.078-8.76 15.284 3.005 13.588-5.855-0.272 9.734 11.837 4.855L58.737 44.824z" fill="#471aa0" data-fill-palette-color="accent"></path></svg></g></svg></g></svg></g><defs></defs></svg><rect width="395.52" height="58.60904226085495" fill="none" stroke="none" visibility="hidden"></rect></g></svg></g></svg>